<svg xmlns="http://www.w3.org/2000/svg" width="13" height="14" viewBox="0 0 13 14" fill="none">
  <path opacity="0.7" fillRule="evenodd" clipRule="evenodd" d="M11.4222 1.32C11.7934 1.32 12.0944 1.61549 12.0944 1.98V3.3066H-0.00561523V1.98C-0.00561523 1.61549 0.295349 1.32 0.666607 1.32H2.68327V0H4.02772V1.32H8.06105V0H9.4055V1.32H11.4222ZM11.4222 13.2H0.666607C0.295349 13.2 -0.00561523 12.9045 -0.00561523 12.54V4.6266H12.0944V12.54C12.0944 12.9045 11.7934 13.2 11.4222 13.2ZM9.4055 6.6H8.06105V7.92H9.4055V6.6ZM8.06105 9.24H9.4055V10.56H8.06105V9.24ZM6.71661 6.6H5.37216V7.92H6.71661V6.6ZM5.37216 9.24H6.71661V10.56H5.37216V9.24ZM4.02772 6.6H2.68327V7.92H4.02772V6.6ZM2.68327 9.24H4.02772V10.56H2.68327V9.24Z" fill="#7182A4"/>
</svg>