<svg width="34" height="36" viewBox="0 0 34 36" fill="none" xmlns="http://www.w3.org/2000/svg">
<path d="M16 2C18.1011 2 20.1817 2.41385 22.1229 3.21793C24.0641 4.022 25.828 5.20055 27.3137 6.68629C28.7994 8.17203 29.978 9.93586 30.7821 11.8771C31.5861 13.8183 32 15.8989 32 18C32 20.1012 31.5861 22.1817 30.7821 24.1229C29.978 26.0641 28.7994 27.828 27.3137 29.3137C25.828 30.7995 24.0641 31.978 22.1229 32.7821C20.1817 33.5861 18.1011 34 16 34C13.8988 34 11.8183 33.5861 9.87705 32.7821C7.93584 31.978 6.17202 30.7994 4.68628 29.3137" stroke="#2196F3" strokeWidth="4" strokeLinecap="square" stroke-linejoin="round"/>
<path d="M14.2988 21.1094V22H8.71484V21.2207L11.5098 18.1094C11.8535 17.7266 12.1191 17.4023 12.3066 17.1367C12.498 16.8672 12.6309 16.627 12.7051 16.416C12.7832 16.2012 12.8223 15.9824 12.8223 15.7598C12.8223 15.4785 12.7637 15.2246 12.6465 14.998C12.5332 14.7676 12.3652 14.584 12.1426 14.4473C11.9199 14.3105 11.6504 14.2422 11.334 14.2422C10.9551 14.2422 10.6387 14.3164 10.3848 14.4648C10.1348 14.6094 9.94727 14.8125 9.82227 15.0742C9.69727 15.3359 9.63477 15.6367 9.63477 15.9766H8.55078C8.55078 15.4961 8.65625 15.0566 8.86719 14.6582C9.07812 14.2598 9.39062 13.9434 9.80469 13.709C10.2188 13.4707 10.7285 13.3516 11.334 13.3516C11.873 13.3516 12.334 13.4473 12.7168 13.6387C13.0996 13.8262 13.3926 14.0918 13.5957 14.4355C13.8027 14.7754 13.9062 15.1738 13.9062 15.6309C13.9062 15.8809 13.8633 16.1348 13.7773 16.3926C13.6953 16.6465 13.5801 16.9004 13.4316 17.1543C13.2871 17.4082 13.1172 17.6582 12.9219 17.9043C12.7305 18.1504 12.5254 18.3926 12.3066 18.6309L10.0215 21.1094H14.2988ZM15.7652 15.5605V15.1094C15.7652 14.7852 15.8355 14.4902 15.9762 14.2246C16.1168 13.959 16.318 13.7461 16.5797 13.5859C16.8414 13.4258 17.152 13.3457 17.5113 13.3457C17.8785 13.3457 18.191 13.4258 18.4488 13.5859C18.7105 13.7461 18.9117 13.959 19.0523 14.2246C19.193 14.4902 19.2633 14.7852 19.2633 15.1094V15.5605C19.2633 15.877 19.193 16.168 19.0523 16.4336C18.9156 16.6992 18.7164 16.9121 18.4547 17.0723C18.1969 17.2324 17.8863 17.3125 17.523 17.3125C17.1598 17.3125 16.8453 17.2324 16.5797 17.0723C16.318 16.9121 16.1168 16.6992 15.9762 16.4336C15.8355 16.168 15.7652 15.877 15.7652 15.5605ZM16.5797 15.1094V15.5605C16.5797 15.7402 16.6129 15.9102 16.6793 16.0703C16.7496 16.2305 16.8551 16.3613 16.9957 16.4629C17.1363 16.5605 17.3121 16.6094 17.523 16.6094C17.734 16.6094 17.9078 16.5605 18.0445 16.4629C18.1813 16.3613 18.2828 16.2305 18.3492 16.0703C18.4156 15.9102 18.4488 15.7402 18.4488 15.5605V15.1094C18.4488 14.9258 18.4137 14.7539 18.3434 14.5938C18.277 14.4297 18.1734 14.2988 18.0328 14.2012C17.8961 14.0996 17.7223 14.0488 17.5113 14.0488C17.3043 14.0488 17.1305 14.0996 16.9898 14.2012C16.8531 14.2988 16.7496 14.4297 16.6793 14.5938C16.6129 14.7539 16.5797 14.9258 16.5797 15.1094ZM19.9195 20.3652V19.9082C19.9195 19.5879 19.9898 19.2949 20.1305 19.0293C20.2711 18.7637 20.4723 18.5508 20.734 18.3906C20.9957 18.2305 21.3063 18.1504 21.6656 18.1504C22.0328 18.1504 22.3453 18.2305 22.6031 18.3906C22.8648 18.5508 23.066 18.7637 23.2066 19.0293C23.3473 19.2949 23.4176 19.5879 23.4176 19.9082V20.3652C23.4176 20.6855 23.3473 20.9785 23.2066 21.2441C23.0699 21.5098 22.8707 21.7227 22.609 21.8828C22.3512 22.043 22.0406 22.123 21.6773 22.123C21.3141 22.123 21.0016 22.043 20.7398 21.8828C20.4781 21.7227 20.275 21.5098 20.1305 21.2441C19.9898 20.9785 19.9195 20.6855 19.9195 20.3652ZM20.734 19.9082V20.3652C20.734 20.5449 20.7672 20.7168 20.8336 20.8809C20.9039 21.041 21.0094 21.1719 21.15 21.2734C21.2906 21.3711 21.4664 21.4199 21.6773 21.4199C21.8883 21.4199 22.0621 21.3711 22.1988 21.2734C22.3395 21.1719 22.443 21.041 22.5094 20.8809C22.5758 20.7207 22.609 20.5488 22.609 20.3652V19.9082C22.609 19.7246 22.5738 19.5527 22.5035 19.3926C22.4371 19.2324 22.3336 19.1035 22.193 19.0059C22.0563 18.9043 21.8805 18.8535 21.6656 18.8535C21.4586 18.8535 21.2848 18.9043 21.1441 19.0059C21.0074 19.1035 20.9039 19.2324 20.8336 19.3926C20.7672 19.5527 20.734 19.7246 20.734 19.9082ZM21.9352 14.6816L17.7691 21.3496L17.1598 20.9629L21.3258 14.2949L21.9352 14.6816Z" fill="black" fill-opacity="0.6"/>
</svg>
