<svg width="34" height="36" viewBox="0 0 34 36" fill="none" xmlns="http://www.w3.org/2000/svg">
<path d="M16 2C18.1011 2 20.1817 2.41385 22.1229 3.21793C24.0641 4.022 25.828 5.20055 27.3137 6.68629C28.7994 8.17203 29.978 9.93586 30.7821 11.8771C31.5861 13.8183 32 15.8989 32 18C32 20.1012 31.5861 22.1817 30.7821 24.1229C29.978 26.0641 28.7994 27.828 27.3137 29.3137C25.828 30.7995 24.0641 31.978 22.1229 32.7821C20.1817 33.5861 18.1011 34 16 34C13.8988 34 11.8183 33.5861 9.87705 32.7821C7.93584 31.978 6.17202 30.7994 4.68628 29.3137" stroke="#2196F3" strokeWidth="4" strokeLinecap="square" stroke-linejoin="round"/>
<path d="M6.29102 17.2012H7.06445C7.44336 17.2012 7.75586 17.1387 8.00195 17.0137C8.25195 16.8848 8.4375 16.7109 8.55859 16.4922C8.68359 16.2695 8.74609 16.0195 8.74609 15.7422C8.74609 15.4141 8.69141 15.1387 8.58203 14.916C8.47266 14.6934 8.30859 14.5254 8.08984 14.4121C7.87109 14.2988 7.59375 14.2422 7.25781 14.2422C6.95312 14.2422 6.68359 14.3027 6.44922 14.4238C6.21875 14.541 6.03711 14.709 5.9043 14.9277C5.77539 15.1465 5.71094 15.4043 5.71094 15.7012H4.62695C4.62695 15.2676 4.73633 14.873 4.95508 14.5176C5.17383 14.1621 5.48047 13.8789 5.875 13.668C6.27344 13.457 6.73438 13.3516 7.25781 13.3516C7.77344 13.3516 8.22461 13.4434 8.61133 13.627C8.99805 13.8066 9.29883 14.0762 9.51367 14.4355C9.72852 14.791 9.83594 15.2344 9.83594 15.7656C9.83594 15.9805 9.78516 16.2109 9.68359 16.457C9.58594 16.6992 9.43164 16.9258 9.2207 17.1367C9.01367 17.3477 8.74414 17.5215 8.41211 17.6582C8.08008 17.791 7.68164 17.8574 7.2168 17.8574H6.29102V17.2012ZM6.29102 18.0918V17.4414H7.2168C7.75977 17.4414 8.20898 17.5059 8.56445 17.6348C8.91992 17.7637 9.19922 17.9355 9.40234 18.1504C9.60938 18.3652 9.75391 18.6016 9.83594 18.8594C9.92188 19.1133 9.96484 19.3672 9.96484 19.6211C9.96484 20.0195 9.89648 20.373 9.75977 20.6816C9.62695 20.9902 9.4375 21.252 9.19141 21.4668C8.94922 21.6816 8.66406 21.8438 8.33594 21.9531C8.00781 22.0625 7.65039 22.1172 7.26367 22.1172C6.89258 22.1172 6.54297 22.0645 6.21484 21.959C5.89062 21.8535 5.60352 21.7012 5.35352 21.502C5.10352 21.2988 4.9082 21.0508 4.76758 20.7578C4.62695 20.4609 4.55664 20.123 4.55664 19.7441H5.64062C5.64062 20.041 5.70508 20.3008 5.83398 20.5234C5.9668 20.7461 6.1543 20.9199 6.39648 21.0449C6.64258 21.166 6.93164 21.2266 7.26367 21.2266C7.5957 21.2266 7.88086 21.1699 8.11914 21.0566C8.36133 20.9395 8.54688 20.7637 8.67578 20.5293C8.80859 20.2949 8.875 20 8.875 19.6445C8.875 19.2891 8.80078 18.998 8.65234 18.7715C8.50391 18.541 8.29297 18.3711 8.01953 18.2617C7.75 18.1484 7.43164 18.0918 7.06445 18.0918H6.29102ZM17.2145 17.0547V18.3555C17.2145 19.0547 17.152 19.6445 17.027 20.125C16.902 20.6055 16.7223 20.9922 16.4879 21.2852C16.2535 21.5781 15.9703 21.791 15.6383 21.9238C15.3102 22.0527 14.9391 22.1172 14.525 22.1172C14.1969 22.1172 13.8941 22.0762 13.6168 21.9941C13.3395 21.9121 13.0895 21.7812 12.8668 21.6016C12.648 21.418 12.4605 21.1797 12.3043 20.8867C12.148 20.5938 12.0289 20.2383 11.9469 19.8203C11.8648 19.4023 11.8238 18.9141 11.8238 18.3555V17.0547C11.8238 16.3555 11.8863 15.7695 12.0113 15.2969C12.1402 14.8242 12.3219 14.4453 12.5563 14.1602C12.7906 13.8711 13.0719 13.6641 13.4 13.5391C13.732 13.4141 14.1031 13.3516 14.5133 13.3516C14.8453 13.3516 15.15 13.3926 15.4273 13.4746C15.7086 13.5527 15.9586 13.6797 16.1773 13.8555C16.3961 14.0273 16.5816 14.2578 16.734 14.5469C16.8902 14.832 17.0094 15.1816 17.0914 15.5957C17.1734 16.0098 17.2145 16.4961 17.2145 17.0547ZM16.1246 18.5312V16.873C16.1246 16.4902 16.1012 16.1543 16.0543 15.8652C16.0113 15.5723 15.9469 15.3223 15.8609 15.1152C15.775 14.9082 15.6656 14.7402 15.5328 14.6113C15.4039 14.4824 15.2535 14.3887 15.0816 14.3301C14.9137 14.2676 14.7242 14.2363 14.5133 14.2363C14.2555 14.2363 14.027 14.2852 13.8277 14.3828C13.6285 14.4766 13.4605 14.627 13.3238 14.834C13.191 15.041 13.0895 15.3125 13.0191 15.6484C12.9488 15.9844 12.9137 16.3926 12.9137 16.873V18.5312C12.9137 18.9141 12.9352 19.252 12.9781 19.5449C13.025 19.8379 13.0934 20.0918 13.1832 20.3066C13.273 20.5176 13.3824 20.6914 13.5113 20.8281C13.6402 20.9648 13.7887 21.0664 13.9566 21.1328C14.1285 21.1953 14.318 21.2266 14.525 21.2266C14.7906 21.2266 15.023 21.1758 15.2223 21.0742C15.4215 20.9727 15.5875 20.8145 15.7203 20.5996C15.857 20.3809 15.9586 20.1016 16.025 19.7617C16.0914 19.418 16.1246 19.0078 16.1246 18.5312ZM18.9152 15.5605V15.1094C18.9152 14.7852 18.9855 14.4902 19.1262 14.2246C19.2668 13.959 19.468 13.7461 19.7297 13.5859C19.9914 13.4258 20.302 13.3457 20.6613 13.3457C21.0285 13.3457 21.341 13.4258 21.5988 13.5859C21.8605 13.7461 22.0617 13.959 22.2023 14.2246C22.343 14.4902 22.4133 14.7852 22.4133 15.1094V15.5605C22.4133 15.877 22.343 16.168 22.2023 16.4336C22.0656 16.6992 21.8664 16.9121 21.6047 17.0723C21.3469 17.2324 21.0363 17.3125 20.673 17.3125C20.3098 17.3125 19.9953 17.2324 19.7297 17.0723C19.468 16.9121 19.2668 16.6992 19.1262 16.4336C18.9855 16.168 18.9152 15.877 18.9152 15.5605ZM19.7297 15.1094V15.5605C19.7297 15.7402 19.7629 15.9102 19.8293 16.0703C19.8996 16.2305 20.0051 16.3613 20.1457 16.4629C20.2863 16.5605 20.4621 16.6094 20.673 16.6094C20.884 16.6094 21.0578 16.5605 21.1945 16.4629C21.3313 16.3613 21.4328 16.2305 21.4992 16.0703C21.5656 15.9102 21.5988 15.7402 21.5988 15.5605V15.1094C21.5988 14.9258 21.5637 14.7539 21.4934 14.5938C21.427 14.4297 21.3234 14.2988 21.1828 14.2012C21.0461 14.0996 20.8723 14.0488 20.6613 14.0488C20.4543 14.0488 20.2805 14.0996 20.1398 14.2012C20.0031 14.2988 19.8996 14.4297 19.8293 14.5938C19.7629 14.7539 19.7297 14.9258 19.7297 15.1094ZM23.0695 20.3652V19.9082C23.0695 19.5879 23.1398 19.2949 23.2805 19.0293C23.4211 18.7637 23.6223 18.5508 23.884 18.3906C24.1457 18.2305 24.4563 18.1504 24.8156 18.1504C25.1828 18.1504 25.4953 18.2305 25.7531 18.3906C26.0148 18.5508 26.216 18.7637 26.3566 19.0293C26.4973 19.2949 26.5676 19.5879 26.5676 19.9082V20.3652C26.5676 20.6855 26.4973 20.9785 26.3566 21.2441C26.2199 21.5098 26.0207 21.7227 25.759 21.8828C25.5012 22.043 25.1906 22.123 24.8273 22.123C24.4641 22.123 24.1516 22.043 23.8898 21.8828C23.6281 21.7227 23.425 21.5098 23.2805 21.2441C23.1398 20.9785 23.0695 20.6855 23.0695 20.3652ZM23.884 19.9082V20.3652C23.884 20.5449 23.9172 20.7168 23.9836 20.8809C24.0539 21.041 24.1594 21.1719 24.3 21.2734C24.4406 21.3711 24.6164 21.4199 24.8273 21.4199C25.0383 21.4199 25.2121 21.3711 25.3488 21.2734C25.4895 21.1719 25.593 21.041 25.6594 20.8809C25.7258 20.7207 25.759 20.5488 25.759 20.3652V19.9082C25.759 19.7246 25.7238 19.5527 25.6535 19.3926C25.5871 19.2324 25.4836 19.1035 25.343 19.0059C25.2063 18.9043 25.0305 18.8535 24.8156 18.8535C24.6086 18.8535 24.4348 18.9043 24.2941 19.0059C24.1574 19.1035 24.0539 19.2324 23.9836 19.3926C23.9172 19.5527 23.884 19.7246 23.884 19.9082ZM25.0852 14.6816L20.9191 21.3496L20.3098 20.9629L24.4758 14.2949L25.0852 14.6816Z" fill="black" fill-opacity="0.6"/>
</svg>
