<svg xmlns="http://www.w3.org/2000/svg" width="25" height="25" viewBox="0 0 25 25" fill="none">
  <rect width="25" height="25" rx="4" fill="#DB0019"/>
  <path d="M8.7523 13.5908C7.76153 12.9853 7.10577 11.9318 7.10577 10.7334C7.10577 8.85561 8.71583 7.33337 10.7019 7.33337C12.3776 7.33337 13.7856 8.41693 14.1848 9.88337H15.6466C16.888 9.88337 17.8942 10.8348 17.8942 12.0084C17.8942 13.182 16.888 14.1334 15.6466 14.1334H10.2524C9.67593 14.1334 9.15015 13.9282 8.7523 13.5908Z" fill="white"/>
  <path d="M14.2306 16.3041H13.058V15.1664C13.058 15.0099 12.9238 14.8831 12.7583 14.8831L12.145 14.8831C11.9795 14.8831 11.8453 15.0099 11.8453 15.1664V16.3041H10.6727C10.5072 16.3041 10.373 16.4309 10.373 16.5874C10.373 16.6544 10.3982 16.7193 10.444 16.7705L12.223 18.757C12.3299 18.8765 12.519 18.8913 12.6453 18.7902C12.658 18.7801 12.6697 18.769 12.6804 18.757L14.4594 16.7705C14.5663 16.6511 14.5506 16.4723 14.4243 16.3712C14.3702 16.3278 14.3016 16.3041 14.2306 16.3041Z" fill="white"/>
</svg>